<svg width="30" height="30" viewBox="0 0 30 30" fill="none" xmlns="http://www.w3.org/2000/svg">
<path fill-rule="evenodd" clip-rule="evenodd" d="M26.7026 12.3318C26.8995 13.1896 26.9979 14.0825 26.9979 14.9965C26.9979 21.6194 21.6194 26.9979 14.9965 26.9979C8.37356 26.9979 3.00211 21.6194 3.00211 14.9965C3.00211 8.37356 8.37356 3.00211 14.9965 3.00211C16.3815 3.00211 17.7103 3.23412 18.9477 3.67003C19.7281 3.94422 20.5859 3.52941 20.8601 2.749C21.1343 1.9686 20.7195 1.11085 19.9391 0.836653C18.3923 0.295289 16.726 0 14.9965 0C6.72135 0 0 6.72135 0 14.9965C0 23.2716 6.72135 29.993 14.9965 29.993C23.2716 29.993 29.993 23.2716 29.993 14.9965C29.993 13.8505 29.8664 12.7396 29.6203 11.6639C29.4375 10.8554 28.629 10.3492 27.8275 10.532C27.026 10.7218 26.5198 11.5233 26.7026 12.3318Z" fill="#699027"/>
</svg>
