<svg width="30" height="30" viewBox="0 0 30 30" fill="none" xmlns="http://www.w3.org/2000/svg">
<g clip-path="url(#clip0_149_775)">
<path fill-rule="evenodd" clip-rule="evenodd" d="M26.7026 12.3318C26.8995 13.1896 26.9979 14.0825 26.9979 14.9965C26.9979 21.6194 21.6194 26.9979 14.9965 26.9979C8.37356 26.9979 3.00211 21.6194 3.00211 14.9965C3.00211 8.37356 8.37356 3.00211 14.9965 3.00211C16.3815 3.00211 17.7103 3.23412 18.9477 3.67003C19.7281 3.94422 20.5859 3.52941 20.8601 2.749C21.1343 1.9686 20.7195 1.11085 19.9391 0.836653C18.3923 0.295289 16.726 0 14.9965 0C6.72135 0 0 6.72135 0 14.9965C0 23.2716 6.72135 29.993 14.9965 29.993C23.2716 29.993 29.993 23.2716 29.993 14.9965C29.993 13.8505 29.8664 12.7396 29.6203 11.6639C29.4375 10.8554 28.629 10.3492 27.8275 10.532C27.026 10.7218 26.5198 11.5233 26.7026 12.3318Z" fill="#699027"/>
<path fill-rule="evenodd" clip-rule="evenodd" d="M4.37883 20.6001C3.96668 19.8225 3.64051 18.9855 3.40395 18.1027C1.68981 11.7054 5.49297 5.11814 11.8902 3.404C18.2875 1.68987 24.868 5.49485 26.5821 11.8921C28.2962 18.2893 24.498 24.868 18.1008 26.5821C16.7629 26.9406 15.4194 27.0604 14.1113 26.9596C13.2865 26.8968 12.5654 27.5195 12.5025 28.3442C12.4396 29.169 13.0623 29.8902 13.8871 29.9531C15.5212 30.0756 17.2072 29.9296 18.8778 29.482C26.871 27.3402 31.6237 19.1083 29.4819 11.1151C27.3401 3.12193 19.1082 -1.63078 11.115 0.51098C3.12187 2.65274 -1.63084 10.8847 0.510924 18.8778C0.807531 19.9848 1.21728 21.025 1.73338 22.0004C2.11922 22.7341 3.03121 23.0138 3.75809 22.6298C4.48315 22.239 4.76467 21.3337 4.37883 20.6001Z" fill="#699027"/>
</g>
<defs>
<clipPath id="clip0_149_775">
<rect width="30" height="30" fill="white"/>
</clipPath>
</defs>
</svg>
