<svg width="30" height="30" viewBox="0 0 30 30" fill="none" xmlns="http://www.w3.org/2000/svg">
<path d="M27.6316 0H2.36842C1.74028 0 1.13786 0.249529 0.693694 0.693694C0.249529 1.13786 0 1.74028 0 2.36842L0 27.6316C0 28.2597 0.249529 28.8621 0.693694 29.3063C1.13786 29.7505 1.74028 30 2.36842 30H27.6316C28.2597 30 28.8621 29.7505 29.3063 29.3063C29.7505 28.8621 30 28.2597 30 27.6316V2.36842C30 1.74028 29.7505 1.13786 29.3063 0.693694C28.8621 0.249529 28.2597 0 27.6316 0V0ZM19.2671 9.76184C19.2671 10.0441 19.1487 10.1566 18.8724 10.1566C18.3414 10.1566 17.8105 10.1566 17.2816 10.1783C16.7526 10.2 16.4645 10.4408 16.4645 10.9934C16.4526 11.5855 16.4645 12.1658 16.4645 12.7697H18.7362C19.0599 12.7697 19.1704 12.8803 19.1704 13.2059C19.1704 13.9954 19.1704 14.7888 19.1704 15.5862C19.1704 15.9079 19.0678 16.0086 18.7421 16.0105H16.4447V22.4329C16.4447 22.7763 16.3382 22.8849 15.9987 22.8849H13.5276C13.2296 22.8849 13.1132 22.7684 13.1132 22.4704V16.0204H11.1513C10.8434 16.0204 10.7329 15.9079 10.7329 15.598C10.7329 14.7993 10.7329 14.0013 10.7329 13.2039C10.7329 12.8961 10.8493 12.7796 11.1533 12.7796H13.1132V11.0526C13.0899 10.2769 13.276 9.50921 13.652 8.83026C14.0428 8.14482 14.669 7.62446 15.4145 7.36579C15.8982 7.18977 16.4096 7.10154 16.9243 7.10526H18.8645C19.1428 7.10526 19.2592 7.22763 19.2592 7.5C19.2691 8.25987 19.2691 9.01184 19.2671 9.76184V9.76184Z" fill="white"/>
</svg>
