<svg width="20" height="20" viewBox="0 0 20 20" fill="none" xmlns="http://www.w3.org/2000/svg">
<g clip-path="url(#clip0_47_1429)">
<path d="M19.1 5.1002L14.9 0.900196C13.8 -0.199805 11.8 -0.199805 10.7 0.900196L1.9 9.6002L0 20.0002L10.4 18.1002L19.2 9.3002C19.7 8.8002 20 8.0002 20 7.2002C20 6.4002 19.7 5.7002 19.1 5.1002ZM7.8 13.6002L12.8 8.6002L14.9 10.7002L9.9 15.7002L7.8 13.6002ZM6.4 12.2002L4.3 10.1002L9.3 5.1002L11.4 7.2002L6.4 12.2002ZM3.5 12.2002L7.9 16.6002L2.5 17.6002L3.5 12.2002ZM17.7 7.9002L16.3 9.3002L10.6 3.6002L12 2.2002C12.4 1.8002 13 1.8002 13.4 2.2002L17.6 6.4002C17.9 6.7002 18 7.0002 18 7.2002C18 7.4002 17.9 7.7002 17.7 7.9002Z" fill="#98D431"/>
</g>
<defs>
<clipPath id="clip0_47_1429">
<rect width="20" height="20" fill="white"/>
</clipPath>
</defs>
</svg>
