<svg width="20" height="20" viewBox="0 0 20 20" fill="none" xmlns="http://www.w3.org/2000/svg">
<g clip-path="url(#clip0_46_1417)">
<path d="M17 3H3C1.3 3 0 4.3 0 6V14C0.1 16.5 2.2 17 3 17H17C18.7 17 20 15.7 20 14V6C19.9 3.5 17.8 3 17 3ZM14.1 9.5L18 6.1V13.1L14.1 9.5ZM2 13.1V6.1L5.9 9.4L2 13.1ZM3.8 5H16.2L10.6 9.8C10.2 10.1 9.7 10.1 9.4 9.8L3.8 5ZM3 15H2.9L7.5 10.8L8.2 11.4C8.7 11.8 9.3 12 10 12C10.7 12 11.3 11.8 11.9 11.3L12.5 10.8L17.1 15H17H3Z" fill="#98D431"/>
</g>
<defs>
<clipPath id="clip0_46_1417">
<rect width="20" height="20" fill="white"/>
</clipPath>
</defs>
</svg>
