<svg width="20" height="20" viewBox="0 0 20 20" fill="none" xmlns="http://www.w3.org/2000/svg">
<path d="M14.4 10C15.4 8.9 16 7.5 16 6C16 2.7 13.3 0 10 0C6.7 0 4 2.7 4 6C4 7.5 4.6 8.9 5.6 10C2.2 11.7 0 15.2 0 19C0 19.6 0.4 20 1 20H19C19.6 20 20 19.6 20 19C20 15.2 17.8 11.7 14.4 10ZM10 2C12.2 2 14 3.8 14 6C14 8.2 12.2 10 10 10C7.9 10 6 8.3 6 6C6 3.8 7.8 2 10 2ZM2.1 18C2.5 15 4.6 12.4 7.5 11.4C8.3 11.8 9.1 12 10 12C10.9 12 11.7 11.8 12.5 11.4C15.4 12.4 17.5 14.9 17.9 18H2.1Z" fill="#98D431"/>
</svg>
