<svg width="60" height="60" viewBox="0 0 60 60" fill="none" xmlns="http://www.w3.org/2000/svg">
<path d="M55.9372 20.9119H55.0168V15.7754C55.0168 14.0932 53.6471 12.7246 51.9636 12.7246H33.5498C31.8663 12.7246 30.4968 14.0932 30.4968 15.7813C30.4968 15.7874 30.4968 15.7935 30.4969 15.7993L30.4971 22.123C30.4971 22.7701 31.0218 23.2949 31.669 23.2949H33.7612C34.7091 23.2949 35.4803 24.0645 35.4803 25.0104C35.4803 25.9563 34.7091 26.7259 33.7612 26.7259H31.669C31.0218 26.7259 30.4971 27.2507 30.4971 27.8978V34.2001C30.4971 34.2069 30.4971 34.2137 30.4972 34.2205C30.5021 34.5016 30.5457 34.774 30.623 35.0321C30.3574 34.9564 30.0772 34.9158 29.7877 34.9157H23.4717C22.8245 34.9157 22.2998 35.4404 22.2998 36.0875V38.1748C22.2998 39.1206 21.5286 39.8903 20.5808 39.8903C19.633 39.8903 18.8619 39.1207 18.8619 38.1748V36.0875C18.8619 35.4404 18.3373 34.9157 17.69 34.9157H11.373C9.82277 34.9162 8.51941 36.0783 8.34117 37.6187C8.33601 37.6635 8.33344 37.7085 8.33344 37.7534V56.5813C8.33344 56.6264 8.33601 56.6714 8.34117 56.716C8.51929 58.2542 9.82312 59.4141 11.374 59.4141H29.7878C30.5098 59.4141 31.174 59.1623 31.6972 58.7422C32.2128 59.1384 32.8563 59.3748 33.55 59.3748H51.9637C53.6473 59.3748 55.0169 58.0062 55.0169 56.3239V52.7788C55.0169 52.1317 54.4923 51.6069 53.8451 51.6069C53.1978 51.6069 52.6732 52.1317 52.6732 52.7788V56.3239C52.6732 56.7138 52.3549 57.031 51.9637 57.031H33.5498C33.168 57.031 32.8516 56.7238 32.8409 56.3447V51.2268H33.7612C36.0015 51.2268 37.824 49.4058 37.824 47.1675C37.824 44.9292 36.0015 43.1082 33.7612 43.1082H32.8409V37.9718C32.8409 37.9576 32.8407 37.9436 32.8405 37.9295C32.8421 37.5381 33.1597 37.2203 33.5498 37.2203H38.6939V38.1355C38.6939 40.3739 40.5164 42.1949 42.7567 42.1949C44.9969 42.1949 46.8194 40.3739 46.8194 38.1355V37.2203H51.9635C52.3547 37.2203 52.673 37.5398 52.673 37.9325V42.1835C52.673 42.8306 53.1976 43.3554 53.8448 43.3554C54.4921 43.3554 55.0167 42.8306 55.0167 42.1835V37.9325C55.0167 37.2225 54.7735 36.5682 54.3662 36.0489C54.7735 35.5298 55.0167 34.8762 55.0167 34.1667V29.0303H55.9371C58.1774 29.0303 59.9999 27.2093 59.9999 24.971C59.9999 22.7327 58.1775 20.9119 55.9372 20.9119V20.9119ZM33.7612 45.452C34.7091 45.452 35.4803 46.2216 35.4803 47.1675C35.4803 48.1134 34.7091 48.883 33.7612 48.883H31.669C31.0218 48.883 30.4971 49.4078 30.4971 50.0549V56.3632C30.4971 56.7531 30.1788 57.0703 29.7877 57.0703H11.374C11.031 57.0703 10.74 56.8275 10.6772 56.4975V37.8371C10.7401 37.5045 11.0311 37.2595 11.374 37.2594H16.5182V38.1748C16.5182 40.413 18.3407 42.234 20.5808 42.234C22.8211 42.234 24.6436 40.413 24.6436 38.1748V37.2594H29.7879C30.1744 37.2595 30.4896 37.5717 30.497 37.9581L30.4971 44.2801C30.4971 44.9272 31.0218 45.452 31.669 45.452H33.7612ZM55.9372 26.6866H53.845C53.1977 26.6866 52.6731 27.2114 52.6731 27.8585V34.1668C52.6731 34.5582 52.3548 34.8766 51.9636 34.8766H45.6477C45.0005 34.8766 44.4758 35.4014 44.4758 36.0485V38.1356C44.4758 39.0816 43.7046 39.8512 42.7568 39.8512C41.809 39.8512 41.0378 39.0817 41.0378 38.1356V36.0485C41.0378 35.4014 40.5131 34.8766 39.8659 34.8766H33.55C33.1682 34.8766 32.8518 34.5682 32.841 34.1876V29.0696H33.7614C36.0016 29.0696 37.8241 27.2487 37.8241 25.0104C37.8241 22.7721 36.0016 20.9511 33.7614 20.9511H32.841V15.8147L32.8406 15.7754C32.8406 15.3855 33.1588 15.0683 33.55 15.0683H51.9637C52.3549 15.0683 52.6732 15.3855 52.6732 15.7754V22.0837C52.6732 22.7309 53.1978 23.2556 53.8451 23.2556H55.9373C56.8852 23.2556 57.6564 24.0251 57.6564 24.9711C57.6562 25.917 56.885 26.6866 55.9372 26.6866V26.6866Z" fill="#98D431"/>
<path d="M53.8453 48.6749C53.3558 48.6749 52.9071 48.3574 52.742 47.8973C52.579 47.4431 52.7193 46.9214 53.0872 46.6093C53.4711 46.2838 54.0359 46.2418 54.4636 46.5075C54.8727 46.7616 55.0887 47.2595 54.9936 47.7315C54.8849 48.2721 54.398 48.6749 53.8453 48.6749V48.6749Z" fill="#98D431"/>
<path d="M12.0525 16.339C11.7681 16.339 11.492 16.2354 11.2768 16.0455L8.85457 13.9066C8.36941 13.4783 8.32348 12.7376 8.7518 12.2525C9.18023 11.7675 9.92086 11.7216 10.4059 12.1498L11.8882 13.4588L15.068 9.32508C15.4627 8.81203 16.1984 8.71606 16.7113 9.11074C17.2242 9.50531 17.3202 10.2411 16.9256 10.7539L12.9813 15.8816C12.7835 16.1388 12.4877 16.3025 12.1646 16.3336C12.1273 16.3371 12.0898 16.339 12.0525 16.339V16.339Z" fill="#98D431"/>
<path d="M12.2475 30.0561C10.0072 30.0561 8.18473 28.2352 8.18473 25.9968V25.0815H3.04055C1.4898 25.0815 0.185977 23.9205 0.00773437 22.3809C0.00257812 22.3364 0 22.2914 0 22.2464V3.41859C0 3.37348 0.00257812 3.32848 0.00773437 3.28383C0.185859 1.74574 1.48969 0.585938 3.04055 0.585938H21.4543C23.1379 0.585938 24.5074 1.95457 24.5074 3.6368V8.77324H25.4278C27.668 8.77324 29.4905 10.5942 29.4905 12.8325C29.4905 15.0708 27.668 16.8918 25.4278 16.8918H24.5074V22.0282C24.5074 23.7118 23.1377 25.0818 21.4543 25.0818H16.3102V25.997C16.3102 28.2352 14.4877 30.0561 12.2475 30.0561V30.0561ZM2.34375 22.1626C2.40668 22.494 2.69754 22.7379 3.04055 22.7379H9.35648C10.0037 22.7379 10.5284 23.2627 10.5284 23.9098V25.9969C10.5284 26.9428 11.2996 27.7125 12.2474 27.7125C13.1952 27.7125 13.9663 26.9429 13.9663 25.9969V23.9098C13.9663 23.2627 14.4909 22.7379 15.1382 22.7379H21.4542C21.8454 22.7379 22.1636 22.4195 22.1636 22.0281V15.7198C22.1636 15.0727 22.6882 14.5479 23.3354 14.5479H25.4277C26.3755 14.5479 27.1466 13.7784 27.1466 12.8324C27.1466 11.8866 26.3755 11.1169 25.4277 11.1169H23.3355C22.6883 11.1169 22.1637 10.5921 22.1637 9.945V3.6368C22.1637 3.24691 21.8455 2.92969 21.4543 2.92969H3.04055C2.69742 2.92969 2.40656 3.1725 2.34375 3.5025V22.1626Z" fill="#98D431"/>
</svg>
