<svg width="58" height="60" viewBox="0 0 58 60" fill="none" xmlns="http://www.w3.org/2000/svg">
<path d="M29 0C27.233 0 25.4768 0.234556 23.7803 0.697358C23.1211 0.87711 22.7325 1.55727 22.9122 2.2164C23.092 2.87566 23.7728 3.26436 24.4312 3.08436C25.9156 2.67945 27.4528 2.47422 29 2.47422C38.55 2.47422 46.3196 10.2438 46.3196 19.7937C46.3196 28.6674 42.7811 32.1331 39.6593 35.1909C37.6261 37.1822 35.6939 39.0768 35.2717 42.0618H22.7284C22.3062 39.0768 20.3739 37.1822 18.3407 35.1909C15.219 32.1331 11.6805 28.6674 11.6805 19.7937C11.6805 15.7035 13.1336 11.7336 15.7723 8.61522C16.2135 8.09366 16.1486 7.31304 15.6269 6.87177C15.1055 6.43037 14.3247 6.49544 13.8834 7.017C10.8674 10.5815 9.2063 15.1191 9.2063 19.7937C9.2063 29.7073 13.3112 33.7279 16.6095 36.9586C18.4875 38.7979 19.9127 40.1953 20.2588 42.2851C18.6878 42.8323 17.5568 44.3273 17.5568 46.0825C17.5568 47.8679 18.7268 49.3844 20.3403 49.9075V52.5775H20.0311C19.348 52.5775 18.794 53.1313 18.794 53.8146C18.794 54.4978 19.348 55.0517 20.0311 55.0517H20.3403V56.2888C20.3403 58.3352 22.0052 60.0001 24.0516 60.0001H33.9485C35.9949 60.0001 37.6598 58.3352 37.6598 56.2888V55.0517H37.9691C38.6522 55.0517 39.2062 54.4978 39.2062 53.8146C39.2062 53.1313 38.6522 52.5775 37.9691 52.5775H37.6598V49.9075C39.2732 49.3845 40.4433 47.8679 40.4433 46.0825C40.4433 44.3274 39.3123 42.8323 37.7413 42.2851C38.0873 40.1953 39.5126 38.7979 41.3905 36.9586C44.6889 33.728 48.7938 29.7074 48.7938 19.7937C48.7938 8.87947 39.9144 0 29 0V0ZM35.1856 56.2887C35.1856 56.9708 34.6306 57.5258 33.9485 57.5258H24.0516C23.3695 57.5258 22.8145 56.9708 22.8145 56.2887V55.0516H35.1856V56.2887ZM22.8145 52.5775V50.1031H35.1856V52.5775H22.8145ZM36.4227 47.6288H21.5774C20.7247 47.6288 20.031 46.9351 20.031 46.0824C20.031 45.2297 20.7247 44.536 21.5774 44.536H36.4227C37.2754 44.536 37.9691 45.2298 37.9691 46.0824C37.9691 46.9351 37.2754 47.6288 36.4227 47.6288Z" fill="#98D431"/>
<path d="M4.25763 21.0308C4.94076 21.0308 5.49474 20.477 5.49474 19.7937C5.49474 19.1105 4.94076 18.5566 4.25763 18.5566H1.4124C0.72927 18.5566 0.175293 19.1105 0.175293 19.7937C0.175293 20.477 0.72927 21.0308 1.4124 21.0308H4.25763Z" fill="#98D431"/>
<path d="M6.95391 31.0936L2.02576 33.939C1.43405 34.2805 1.23129 35.0371 1.57298 35.6288C1.80222 36.0257 2.21788 36.2476 2.64555 36.2476C2.85537 36.2476 3.06815 36.1941 3.26287 36.0816L8.19101 33.2363C8.78272 32.8947 8.98549 32.1381 8.6438 31.5464C8.30223 30.9548 7.54574 30.7519 6.95391 31.0936V31.0936Z" fill="#98D431"/>
<path d="M55.9743 33.9388L51.0462 31.0935C50.4543 30.7518 49.6977 30.9547 49.3563 31.5463C49.0146 32.138 49.2173 32.8946 49.8091 33.2362L54.7372 36.0815C54.9321 36.1941 55.1447 36.2475 55.3545 36.2475C55.7821 36.2475 56.198 36.0256 56.4271 35.6287C56.7688 35.0371 56.566 34.2805 55.9743 33.9388V33.9388Z" fill="#98D431"/>
<path d="M56.5877 18.5566H53.7424C53.0593 18.5566 52.5053 19.1105 52.5053 19.7937C52.5053 20.477 53.0593 21.0308 53.7424 21.0308H56.5877C57.2708 21.0308 57.8248 20.477 57.8248 19.7937C57.8248 19.1105 57.2708 18.5566 56.5877 18.5566Z" fill="#98D431"/>
<path d="M50.4288 8.65988C50.6387 8.65988 50.8514 8.60631 51.0462 8.49386L55.9743 5.64851C56.566 5.30695 56.7688 4.55033 56.4271 3.95862C56.0854 3.36704 55.329 3.16428 54.7372 3.50584L49.8091 6.35119C49.2173 6.69275 49.0146 7.44937 49.3563 8.04108C49.5854 8.43807 50.0012 8.65988 50.4288 8.65988Z" fill="#98D431"/>
<path d="M8.19101 6.35119L3.26287 3.50584C2.67091 3.16403 1.91455 3.36692 1.57298 3.95862C1.23129 4.55033 1.43405 5.30695 2.02576 5.64851L6.95391 8.49386C7.14875 8.60632 7.36141 8.65988 7.57122 8.65988C7.99877 8.65988 8.41468 8.43795 8.6438 8.04108C8.98549 7.44937 8.78272 6.69276 8.19101 6.35119Z" fill="#98D431"/>
<path d="M33.0495 26.8864C33.5766 26.0943 34.6027 25.0325 35.5369 24.0982C36.4049 23.2303 37.0861 22.2125 37.5622 21.073C38.0374 19.9355 38.2782 18.7381 38.2782 17.5142C38.2782 15.0362 37.313 12.7062 35.5604 10.9536C33.8078 9.20099 31.478 8.23592 28.9999 8.23592C26.5219 8.23592 24.192 9.20111 22.4394 10.9536C20.6868 12.7062 19.7216 15.0362 19.7216 17.5142C19.7216 19.5607 21.3865 21.2256 23.4329 21.2256C25.4794 21.2256 27.1443 19.5607 27.1443 17.5142C27.1443 17.0183 27.3372 16.5523 27.6877 16.2019C28.0381 15.8516 28.5041 15.6586 28.9999 15.6586C29.4957 15.6586 29.9618 15.8516 30.3122 16.2019C30.6626 16.5523 30.8556 17.0183 30.8556 17.5142C30.8556 17.7661 30.8091 18.0052 30.7173 18.225C30.6237 18.4487 30.4795 18.6591 30.2886 18.8501C28.6018 20.5369 27.612 21.6785 26.8725 22.7903C25.792 24.4141 25.2886 25.9549 25.2886 27.6391C25.2886 28.589 25.6477 29.4563 26.2367 30.1134C25.6476 30.7707 25.2886 31.6383 25.2886 32.5886C25.2886 34.6351 26.9535 36.3 28.9999 36.3C31.0463 36.3 32.7112 34.6351 32.7112 32.5886V32.5878C32.7112 31.6379 32.3521 30.7706 31.7631 30.1134C32.3521 29.4563 32.7112 28.589 32.7112 27.6391C32.7114 27.5278 32.7701 27.3066 33.0495 26.8864V26.8864ZM28.9325 24.161C29.5753 23.1945 30.4752 22.1629 32.0384 20.5996C32.4584 20.1795 32.7821 19.7014 33.0003 19.1788C33.2189 18.6555 33.3298 18.0954 33.3298 17.5144C33.3298 16.3575 32.8794 15.2701 32.0618 14.4525C31.2442 13.6348 30.1569 13.1845 28.9999 13.1845C27.843 13.1845 26.7557 13.6348 25.9382 14.4525C25.1205 15.2701 24.67 16.3575 24.67 17.5144C24.67 18.1965 24.1151 18.7515 23.4329 18.7515C22.7508 18.7515 22.1958 18.1965 22.1958 17.5144C22.1958 15.6972 22.9037 13.9886 24.1889 12.7034C25.4742 11.4181 27.1827 10.7103 28.9999 10.7103C30.8171 10.7103 32.5257 11.4181 33.8109 12.7034C35.0963 13.9886 35.804 15.6972 35.804 17.5144C35.804 18.4092 35.6273 19.2856 35.2791 20.1195C34.928 20.9599 34.426 21.71 33.7874 22.3489C32.3217 23.8143 31.5112 24.7319 30.9894 25.516C30.4762 26.2876 30.237 26.9623 30.237 27.6392C30.237 28.3214 29.6821 28.8763 28.9999 28.8763C28.3178 28.8763 27.7628 28.3214 27.7628 27.6392C27.7629 26.4491 28.1237 25.3764 28.9325 24.161V24.161ZM30.2371 32.5886C30.2371 33.2708 29.6822 33.8258 29 33.8258C28.3179 33.8258 27.7629 33.2708 27.7629 32.5878C27.7629 31.9056 28.3179 31.3507 29 31.3507C29.6822 31.3507 30.2371 31.9056 30.2371 32.5878V32.5886Z" fill="#98D431"/>
<path d="M19.0166 5.386C19.6997 5.386 20.2537 4.83214 20.2537 4.14889C20.2537 3.46563 19.6997 2.91178 19.0166 2.91178H19.0156C18.3325 2.91178 17.779 3.46563 17.779 4.14889C17.779 4.83214 18.3333 5.386 19.0166 5.386V5.386Z" fill="#98D431"/>
</svg>
