<svg width="60" height="60" viewBox="0 0 60 60" fill="none" xmlns="http://www.w3.org/2000/svg">
<path d="M58.7526 2.08969C58.646 1.67633 58.3237 1.35407 57.9104 1.24741C48.339 -1.22086 38.2737 -0.000915319 29.5688 4.68155C27.6558 5.7106 25.8468 6.8866 24.1535 8.19443C19.3085 6.46637 13.9193 7.65884 10.2498 11.3283L2.916 18.6617C2.45869 19.1194 2.45869 19.8614 2.916 20.3192L11.0761 28.4789C11.0761 28.4793 11.0765 28.4793 11.0765 28.4798L12.1289 29.5317L11.1608 36.6454C11.1113 37.0084 11.234 37.3732 11.4931 37.6323L12.3455 38.4846L5.34443 45.5278C4.88804 45.9869 4.89033 46.729 5.34947 47.1849C5.80861 47.6413 6.55064 47.639 7.00657 47.1803L14.0026 40.1418L19.8587 45.9984L9.99119 55.8224C9.53251 56.2793 9.53068 57.0213 9.98707 57.48C10.2164 57.7098 10.5172 57.8252 10.8179 57.8252C11.1168 57.8252 11.4158 57.7112 11.6446 57.4837L21.5163 47.6555L22.3677 48.5074C22.5893 48.7285 22.8878 48.8503 23.1963 48.8503C23.2489 48.8503 23.3016 48.847 23.3547 48.8397L30.4683 47.8716L31.5207 48.9239C31.5207 48.9239 31.5207 48.9244 31.5212 48.9244L39.6808 57.0845C39.9097 57.3134 40.2095 57.4274 40.5094 57.4274C40.8097 57.4274 41.1095 57.3134 41.3384 57.0845L48.6718 49.7507C52.3412 46.0812 53.5341 40.692 51.8056 35.847C53.1134 34.1537 54.2894 32.3442 55.3185 30.4317C60.0014 21.7264 61.2209 11.6611 58.7526 2.08969V2.08969ZM11.4171 25.5057L5.40211 19.4907L11.9069 12.9858C14.5844 10.3079 18.3728 9.22943 21.9777 10.0049C17.282 14.2076 13.651 19.5044 11.4171 25.5057ZM23.6142 46.4388L13.5613 36.3858L14.2109 31.6136L28.3864 45.7892L23.6142 46.4388ZM47.0147 48.0931L40.5094 54.5979L34.4948 48.5829C40.4961 46.349 45.7924 42.718 49.9952 38.0223C50.7706 41.6272 49.6921 45.4152 47.0147 48.0931V48.0931ZM32.8002 46.701L32.6606 46.7491L13.2509 27.3395L13.299 27.1999C19.4321 9.37408 38.3767 -0.995178 56.6501 3.34991C60.9948 21.6229 50.6264 40.5679 32.8002 46.701Z" fill="#98D431"/>
<path d="M45.683 12.8814L30.3021 17.0027C29.8979 17.1112 29.5821 17.427 29.4736 17.8317C29.3651 18.2359 29.4809 18.6676 29.7766 18.9638L32.0618 21.2485L27.4571 25.8526C26.9998 26.3104 26.9998 27.0524 27.4571 27.5102C27.9149 27.9675 28.6569 27.9675 29.1147 27.5102L34.5474 22.077C35.0052 21.6197 35.0052 20.8777 34.5474 20.4199L32.8693 18.7417L44.3294 15.6711L41.2587 27.1307L39.5805 25.4526C39.3608 25.2328 39.0628 25.1097 38.752 25.1097C38.4412 25.1097 38.1427 25.2328 37.923 25.4526L28.5718 34.8042C28.114 35.262 28.114 36.004 28.5718 36.4618C28.8007 36.6907 29.1005 36.8046 29.4003 36.8046C29.7002 36.8046 30 36.6907 30.2289 36.4618L38.7515 27.9387L41.0362 30.2234C41.3324 30.5195 41.7641 30.6349 42.1683 30.5269C42.5729 30.4184 42.8888 30.1025 42.9968 29.6983L47.1181 14.317C47.2266 13.9128 47.1112 13.4811 46.815 13.1849C46.5189 12.8888 46.0872 12.773 45.683 12.8814V12.8814Z" fill="#98D431"/>
<path d="M11.2487 48.7513C10.7914 48.2935 10.0493 48.2935 9.59157 48.7513L0.343369 57.9995C-0.114395 58.4568 -0.114395 59.1988 0.343369 59.6566C0.57225 59.8855 0.872086 59.9999 1.17192 59.9999C1.47176 59.9999 1.77205 59.8855 2.00047 59.6566L11.2487 50.4084C11.7064 49.9511 11.7064 49.2091 11.2487 48.7513V48.7513Z" fill="#98D431"/>
<path d="M2.94987 50.7513C3.25795 50.7513 3.56007 50.6272 3.77842 50.4079C3.99632 50.19 4.12175 49.8888 4.12175 49.5794C4.12175 49.2713 3.99632 48.9692 3.77842 48.7513C3.56007 48.5329 3.25795 48.4075 2.94987 48.4075C2.64042 48.4075 2.33921 48.5329 2.12132 48.7513C1.90342 48.9692 1.778 49.2713 1.778 49.5794C1.778 49.8888 1.90342 50.19 2.12132 50.4079C2.33921 50.6272 2.64134 50.7513 2.94987 50.7513Z" fill="#98D431"/>
<path d="M23.6051 29.7047L23.595 29.7134C23.113 30.146 23.0731 30.8871 23.5057 31.3687C23.7369 31.6264 24.0569 31.7578 24.3782 31.7578C24.657 31.7578 24.9367 31.6589 25.1605 31.4575L25.1706 31.4488C25.6522 31.0162 25.6925 30.2755 25.2599 29.794C24.8273 29.3119 24.0866 29.2721 23.6051 29.7047V29.7047Z" fill="#98D431"/>
</svg>
