<svg width="30" height="30" viewBox="0 0 30 30" fill="none" xmlns="http://www.w3.org/2000/svg">
<path d="M27.6316 0H2.36842C1.74028 0 1.13786 0.249529 0.693694 0.693694C0.249529 1.13786 0 1.74028 0 2.36842L0 27.6316C0 28.2597 0.249529 28.8621 0.693694 29.3063C1.13786 29.7505 1.74028 30 2.36842 30H27.6316C28.2597 30 28.8621 29.7505 29.3063 29.3063C29.7505 28.8621 30 28.2597 30 27.6316V2.36842C30 1.74028 29.7505 1.13786 29.3063 0.693694C28.8621 0.249529 28.2597 0 27.6316 0V0ZM10.6382 22.8947H7.36579V12.3533H10.6382V22.8947ZM9 10.9145C8.62339 10.916 8.25478 10.8059 7.94075 10.598C7.62672 10.3901 7.38138 10.0938 7.23573 9.74647C7.09008 9.39917 7.05066 9.01648 7.12246 8.64678C7.19426 8.27708 7.37405 7.93696 7.63911 7.66942C7.90417 7.40188 8.2426 7.21892 8.61161 7.14368C8.98063 7.06844 9.36367 7.10428 9.71232 7.24669C10.061 7.3891 10.3596 7.63167 10.5704 7.94375C10.7812 8.25582 10.8948 8.6234 10.8967 9C10.8978 9.505 10.6988 9.98988 10.3434 10.3486C9.98799 10.7074 9.50499 10.9108 9 10.9145ZM22.8947 22.8947H19.6243V17.7632C19.6243 16.5395 19.6007 14.9704 17.923 14.9704C16.2454 14.9704 15.9493 16.3007 15.9493 17.6743V22.8947H12.6908V12.3533H15.8309V13.7901H15.8763C16.3125 12.9612 17.3803 12.0888 18.973 12.0888C22.2849 12.0888 22.8947 14.2599 22.8947 17.1039V22.8947Z" fill="white"/>
</svg>
