<svg width="30" height="30" viewBox="0 0 30 30" fill="none" xmlns="http://www.w3.org/2000/svg">
<g clip-path="url(#clip0_44_977)">
<path d="M26.0873 17.9258C25.8498 18.087 25.5727 18.1821 25.2849 18.2012C24.9972 18.2202 24.7096 18.1625 24.4524 18.034C23.8487 17.698 23.5233 16.91 23.5233 15.8362V12.5454C23.5233 10.9656 22.8881 9.84164 21.8257 9.5365C20.0301 9.01893 18.6892 11.1858 18.1717 12.0008L14.9961 17.0645V10.8845C14.9608 9.45925 14.4903 8.60564 13.6004 8.35071C13.0123 8.18077 12.1302 8.25029 11.2716 9.54036L4.17146 20.7686C3.22676 18.988 2.73693 17.0073 2.74438 14.9981C2.74438 8.23098 8.23314 2.72692 14.9961 2.72692C21.759 2.72692 27.2674 8.23098 27.2674 14.9981V15.0328C27.2674 15.0328 27.2674 15.056 27.2674 15.0676C27.334 16.377 26.9028 17.4199 26.0912 17.9258H26.0873ZM30.0078 15.0019V14.9363C29.953 6.68984 23.241 0 14.9961 0C6.75118 0 0 6.72847 0 14.9981C0 23.2677 6.72765 30 14.9961 30C18.7883 29.9998 22.4363 28.5678 25.1895 25.9985C25.4567 25.7504 25.614 25.4086 25.6272 25.0471C25.6404 24.6856 25.5085 24.3335 25.2601 24.0672C25.1412 23.9377 24.9974 23.8325 24.8372 23.7579C24.6769 23.6833 24.5032 23.6406 24.3261 23.6323C24.149 23.6241 23.9721 23.6504 23.8053 23.7098C23.6386 23.7692 23.4855 23.8605 23.3547 23.9784C22.1693 25.0861 20.769 25.9464 19.2378 26.5077C17.7066 27.069 16.076 27.3196 14.444 27.2446C12.812 27.1696 11.2122 26.7704 9.74069 26.0711C8.26918 25.3717 6.95627 24.3867 5.88082 23.175L12.2713 13.0552V17.725C12.2713 19.9691 13.1534 20.6952 13.8944 20.9077C14.6354 21.1201 15.7684 20.9733 16.9564 19.073L20.4848 13.4453C20.5946 13.2638 20.7005 13.1093 20.7946 12.9741V15.8362C20.7946 17.9336 21.6492 19.6099 23.1469 20.4365C23.8279 20.7987 24.5953 20.9736 25.3685 20.9431C26.1418 20.9125 26.8925 20.6775 27.5418 20.2626C29.1884 19.2082 30.0863 17.3001 29.9922 15.0019H30.0078Z" fill="white"/>
</g>
<defs>
<clipPath id="clip0_44_977">
<rect width="30" height="30" fill="white"/>
</clipPath>
</defs>
</svg>
