<svg width="29" height="30" viewBox="0 0 29 30" fill="none" xmlns="http://www.w3.org/2000/svg">
<g clip-path="url(#clip0_44_985)">
<path fill-rule="evenodd" clip-rule="evenodd" d="M25.7547 12.7358C24.5755 11.6038 23.2547 10.8491 22.3585 10.4717C22.5472 9.85849 22.8302 9.00943 23.066 8.16038C23.3491 7.0283 23.6792 5.70755 23.6792 4.71698C23.6792 3.53774 23.4434 2.40566 22.7359 1.50943C22.0283 0.566038 20.9434 0.0471698 19.6226 0.0471698C18.5849 0.0471698 17.7358 0.424528 17.0755 1.08491C16.4151 1.69811 15.9906 2.54717 15.7075 3.39623C15.1887 4.90566 15 6.79245 14.9057 8.72642H13.6792C13.6321 6.83962 13.3962 4.90566 12.8774 3.39623C12.5943 2.54717 12.1698 1.69811 11.5094 1.08491C10.8491 0.377358 9.95283 0 8.96227 0C7.64151 0 6.5566 0.518868 5.84906 1.46226C5.18868 2.35849 4.90566 3.53774 4.90566 4.66981C4.90566 5.66038 5.18868 6.98113 5.51887 8.11321C5.75472 8.96227 5.99057 9.76415 6.22642 10.4245C5.33019 10.8491 4.00943 11.5566 2.83019 12.7358C1.32075 14.1509 0 16.3208 0 19.2925C0 22.3585 1.32075 25.0943 3.82076 27.0283C6.32076 28.9151 9.85849 30 14.2453 30C18.6321 30 22.217 28.9623 24.6698 27.0283C27.1698 25.0943 28.4906 22.3585 28.4906 19.2925C28.5849 16.3208 27.2642 14.1509 25.7547 12.7358ZM14.2925 28.5377C5.80189 28.5377 1.22642 24.4811 1.22642 19.1038C1.22642 14.0094 5.75472 11.7925 7.26415 11.1792C7.54717 11.0849 7.68868 10.7547 7.59434 10.4717C7.16981 9.24528 6.17925 6.08491 6.17925 4.48113C6.17925 2.5 7.07547 1.03774 8.96227 1.03774C11.6981 1.03774 12.4057 4.95283 12.4528 9.19811C12.4528 9.48113 12.6887 9.71698 12.9717 9.71698H15.6604C15.9434 9.71698 16.1792 9.48113 16.1792 9.19811C16.2264 5 16.934 1.03774 19.6698 1.03774C21.5566 1.03774 22.4528 2.45283 22.4528 4.48113C22.4528 6.03774 21.4151 9.24528 21.0377 10.4717C20.9434 10.7547 21.0849 11.0377 21.3679 11.1792C22.8774 11.7925 27.4057 14.0094 27.4057 19.1038C27.3113 24.4811 22.7358 28.5377 14.2925 28.5377Z" fill="white"/>
<path d="M10.8491 17.7829C10.8491 19.2452 10.1415 19.9999 9.33963 19.9999C8.49058 19.9999 7.8302 19.2452 7.8302 17.7829C7.8302 16.3206 8.49058 15.5659 9.33963 15.5659C10.1415 15.5659 10.8491 16.3206 10.8491 17.7829Z" fill="white"/>
<path d="M20.8019 17.7829C20.8019 19.2452 20.0943 19.9999 19.2925 19.9999C18.4434 19.9999 17.783 19.2452 17.783 17.7829C17.783 16.3206 18.4906 15.5659 19.2925 15.5659C20.1415 15.5659 20.8019 16.3206 20.8019 17.7829Z" fill="white"/>
</g>
<defs>
<clipPath id="clip0_44_985">
<rect width="28.5849" height="30" fill="white"/>
</clipPath>
</defs>
</svg>
