<svg width="30" height="30" viewBox="0 0 30 30" fill="none" xmlns="http://www.w3.org/2000/svg">
<path d="M0.591271 24.4937C3.36877 26.2562 6.60127 27.1875 9.93877 27.1875C14.8263 27.1875 19.305 25.31 22.5513 21.9012C25.6575 18.6387 27.3663 14.255 27.2813 9.80623C28.4588 8.79873 29.8438 6.87498 29.8438 4.99999C29.8438 4.28124 29.0638 3.82499 28.4313 4.19124C27.325 4.84124 26.3163 5.01124 25.2788 4.71999C23.16 2.65499 20.0063 2.21999 17.3488 3.65249C15.0263 4.90249 13.735 7.18998 13.8513 9.68998C9.92752 9.21123 6.30252 7.24373 3.77502 4.18624C3.36002 3.68749 2.57252 3.74624 2.24252 4.31124C1.02502 6.39623 1.03752 8.81248 2.09627 10.7637C1.59252 10.8525 1.28127 11.2762 1.28127 11.735C1.28127 13.6962 2.16377 15.4987 3.58502 16.7287C3.32002 16.9837 3.23252 17.3625 3.34502 17.7C3.97002 19.5775 5.38502 21.045 7.15377 21.78C5.23002 22.6987 3.10252 23.005 1.20877 22.7725C0.228771 22.64 -0.254979 23.9575 0.591271 24.4937ZM10.195 22.1012C10.8963 21.5625 10.5238 20.44 9.64377 20.4212C8.09377 20.3887 6.68252 19.625 5.80377 18.4237C6.22752 18.3962 6.66627 18.3312 7.08377 18.2187C8.03502 17.9612 7.99002 16.5887 7.02377 16.395C5.27002 16.0425 3.89377 14.765 3.37752 13.12C3.84877 13.2362 4.32877 13.3012 4.80752 13.31C5.75627 13.315 6.11502 12.0987 5.34127 11.59C3.59752 10.4412 2.85377 8.41248 3.34627 6.50498C6.39127 9.58998 10.5225 11.4487 14.8925 11.6587C15.5188 11.6975 15.9888 11.1087 15.8513 10.5125C15.2575 7.93873 16.695 6.13498 18.2388 5.30374C19.7663 4.47874 22.2188 4.22124 24.0988 6.19373C24.6575 6.78248 26.5425 6.80498 27.5013 6.58123C27.0713 7.39123 26.41 8.15998 25.7913 8.59248C25.5275 8.77748 25.3763 9.08498 25.3925 9.40623C25.5938 13.5125 24.0638 17.595 21.195 20.6062C18.305 23.64 14.3088 25.3112 9.94002 25.3112C8.20252 25.3112 6.49877 25.0287 4.88877 24.4837C6.81377 24.1112 8.64252 23.2962 10.195 22.1012Z" fill="white"/>
</svg>
