<svg width="30" height="30" viewBox="0 0 30 30" fill="none" xmlns="http://www.w3.org/2000/svg">
<g clip-path="url(#clip0_44_993)">
<path d="M0.518764 13.995L7.85501 17.6512C8.13876 17.7912 8.47376 17.7812 8.74501 17.6225L15.275 13.8262L11.3225 17.3287C11.1213 17.5075 11.0063 17.7625 11.0063 18.0312V26.5625C11.0063 27.4625 12.155 27.8412 12.6938 27.1262L15.865 22.91L23.7075 27.3762C24.2575 27.6925 24.9625 27.375 25.09 26.7462L29.9813 2.37124C30.1275 1.63874 29.3988 1.04124 28.7213 1.31374L0.596264 12.2825C-0.158735 12.5775 -0.207486 13.6337 0.518764 13.995ZM27.8063 3.68374L23.5075 25.105L16.0763 20.8725C15.6713 20.6412 15.15 20.7437 14.8625 21.1237L12.8813 23.7575V18.4525L23.57 8.98249C24.4163 8.23374 23.4438 6.90249 22.4775 7.46999L8.24001 15.7475L3.25001 13.2612L27.8063 3.68374Z" fill="white"/>
</g>
<defs>
<clipPath id="clip0_44_993">
<rect width="30" height="30" fill="white"/>
</clipPath>
</defs>
</svg>
