<svg width="60" height="60" viewBox="0 0 60 60" fill="none" xmlns="http://www.w3.org/2000/svg">
<path d="M54.0607 12.0752C53.6735 11.5565 52.939 11.4501 52.4207 11.8376C51.902 12.2249 51.7957 12.959 52.183 13.4776C59.5889 23.394 59.3352 37.0997 51.9934 46.7621L51.9852 46.7037C51.6358 44.2078 49.8461 42.1407 47.4262 41.4374L39.9895 39.2759C38.1787 38.7495 36.914 37.0649 36.914 35.1792V34.4412C38.9243 32.5724 40.184 29.9087 40.184 26.956V23.0646C40.462 23.1009 40.7406 23.1342 41.0208 23.161C41.3505 23.1935 41.6765 23.0839 41.9209 22.8617C42.1654 22.6395 42.3046 22.3246 42.3046 21.9944L42.304 15.9629C42.3034 10.6502 37.9809 6.328 32.6682 6.328H26.5429C21.1905 6.328 16.8359 10.6826 16.8359 16.035V22.2264C16.8359 22.8736 17.3607 23.3983 18.0078 23.3983H19.6982V26.9559C19.6982 29.9657 21.0071 32.6758 23.0859 34.5492V35.179C23.0859 37.0648 21.8212 38.7494 20.0104 39.2757L12.5788 41.4358C10.1549 42.1403 8.36495 44.2111 8.01842 46.7112L8.0094 46.776C4.33499 41.98 2.34375 36.1434 2.34375 29.9999C2.34375 22.6127 5.22046 15.6676 10.4441 10.4441C20.0353 0.852891 34.9995 -0.404177 46.0262 7.45499C46.5533 7.83057 47.2849 7.70776 47.6606 7.18077C48.0362 6.65378 47.9135 5.92206 47.3864 5.54636C41.6771 1.47703 34.6631 -0.460075 27.6349 0.0928142C20.5282 0.651446 13.8344 3.7391 8.7867 8.7867C3.12058 14.4531 0 21.9867 0 29.9999C0 37.5965 2.80617 44.7609 7.92526 50.3131C7.94155 50.3318 7.95842 50.3497 7.97588 50.3674C8.24073 50.6533 8.50979 50.936 8.78682 51.2131C14.4532 56.8793 21.9868 59.9998 30.0001 59.9998C38.0133 59.9998 45.5469 56.8792 51.2133 51.2131C56.3429 46.0833 59.4388 39.2767 59.9306 32.0472C60.4173 24.888 58.3327 17.795 54.0607 12.0752ZM19.1798 21.0548V16.0351H19.1797C19.1797 11.975 22.4828 8.67186 26.5429 8.67186H32.6683C36.6888 8.67186 39.96 11.9428 39.9604 15.9633L39.9609 20.6673C37.5632 20.2953 35.2613 19.5329 33.1022 18.3941L31.4763 17.5365C31.091 17.3329 30.6243 17.3605 30.2655 17.6074L29.6237 18.049C26.7652 20.0154 23.4205 21.0548 19.9511 21.0548H19.1798V21.0548ZM22.042 26.956V23.2861C25.2333 22.9434 28.2796 21.8182 30.9519 19.9797L31.0096 19.94L32.0085 20.4669C33.8651 21.4462 35.8174 22.1723 37.8402 22.6413V26.956C37.8402 31.3038 34.2967 34.8408 29.9411 34.8408C25.5855 34.8408 22.042 31.3038 22.042 26.956ZM49.5558 49.5558C48.0194 51.0922 46.3329 52.424 44.5312 53.5409V49.5448C44.5312 48.8977 44.0064 48.3729 43.3593 48.3729C42.7122 48.3729 42.1874 48.8977 42.1874 49.5448V54.8397C38.442 56.6814 34.2961 57.6561 29.9999 57.6561C25.7037 57.6561 21.5579 56.6814 17.8125 54.8397V49.5448C17.8125 48.8977 17.2877 48.3729 16.6406 48.3729C15.9935 48.3729 15.4687 48.8977 15.4687 49.5448V53.5409C13.667 52.424 11.9805 51.0924 10.4441 49.5558C10.3098 49.4215 10.1779 49.2852 10.0467 49.1487L10.3399 47.0331C10.5597 45.4471 11.6953 44.1334 13.2329 43.6865L20.6646 41.5264C20.9591 41.4408 21.2436 41.3343 21.5182 41.2109C22.4696 42.3861 23.6595 43.3559 25.0075 44.0472C25.1786 44.135 25.3613 44.1766 25.5413 44.1766C25.9669 44.1766 26.3774 43.9439 26.585 43.5392C26.8803 42.9633 26.6528 42.257 26.0769 41.9617C25.0742 41.4476 24.1834 40.7363 23.4573 39.8778C24.4718 38.8723 25.1554 37.5493 25.3625 36.104C26.7412 36.7949 28.2964 37.1847 29.9412 37.1847C31.6297 37.1847 33.2239 36.7743 34.6294 36.0487C34.8226 37.4847 35.4867 38.8027 36.4785 39.813C35.7127 40.7375 34.7599 41.4933 33.6787 42.025C33.0979 42.3107 32.8586 43.013 33.1442 43.5938C33.348 44.0083 33.764 44.2487 34.1967 44.2487C34.3702 44.2487 34.5466 44.2101 34.7129 44.1283C36.1449 43.424 37.4013 42.4128 38.3958 41.1718C38.6966 41.3123 39.01 41.4319 39.3353 41.5265L46.772 43.688C48.3073 44.1343 49.4424 45.4455 49.6642 47.0288L49.9601 49.142C49.8269 49.281 49.6924 49.4192 49.5558 49.5558Z" fill="#98D431"/>
</svg>
