<svg width="60" height="52" viewBox="0 0 60 52" fill="none" xmlns="http://www.w3.org/2000/svg">
<path d="M57.3875 32.0255C56.2601 30.8834 54.8039 29.9812 53.1161 29.3682C53.86 28.2055 54.3787 26.8327 54.6231 25.4191C54.9115 25.274 55.1399 25.0117 55.2301 24.6752C55.3601 24.1905 55.1651 23.6961 54.7792 23.42C54.7481 21.5006 54.1891 19.8275 53.1551 18.5737C51.9131 17.069 50.0601 16.2734 47.7956 16.2734C45.531 16.2734 43.6775 17.069 42.4361 18.5737C42.0772 19.0086 41.7773 19.4947 41.5347 20.0234C40.5679 16.7587 39.4057 14.7912 35.3448 13.5108C36.0759 12.3559 36.5863 10.9973 36.828 9.59879C37.1164 9.45367 37.3448 9.19138 37.435 8.85492C37.5645 8.37015 37.3695 7.87576 36.9841 7.59973C36.953 5.68033 36.394 4.0072 35.3595 2.75385C34.1176 1.24872 32.2646 0.453125 30 0.453125C27.7354 0.453125 25.882 1.24872 24.6405 2.75385C23.6064 4.0072 23.047 5.68033 23.0159 7.59973C22.6305 7.87576 22.4355 8.37015 22.5655 8.85492C22.6556 9.19138 22.8836 9.45322 23.1725 9.59833C23.4251 11.0604 23.9713 12.479 24.7563 13.6665C24.5013 13.953 24.3919 14.3582 24.5009 14.7555C24.6432 15.276 25.1152 15.6175 25.6302 15.6175C25.7327 15.6175 25.8371 15.6037 25.941 15.5753C26.076 15.5387 26.2152 15.5021 26.3571 15.4659C27.0859 16.0624 27.9158 16.4927 28.8281 16.6932V18.3567C26.824 18.592 25.1706 19.4421 24.0051 20.8552C22.8319 22.277 22.2047 24.1845 22.1855 26.3758C21.7543 26.64 21.5291 27.1646 21.6664 27.6772C21.7644 28.0425 22.0244 28.3204 22.3485 28.4554C22.6295 30.1542 23.2608 31.8049 24.1763 33.1741C23.7914 33.3082 23.4155 33.4542 23.0521 33.6144C21.8692 31.7312 19.9402 30.2522 17.5246 29.3701C18.2689 28.2069 18.788 26.8331 19.0324 25.4182C19.319 25.274 19.5465 25.0149 19.6376 24.6812C19.8157 24.0307 19.9718 23.4342 20.1228 22.8579C20.2309 22.445 20.3334 22.0532 20.4341 21.681C20.603 21.0562 20.2332 20.4125 19.6083 20.2441C19.2599 20.1498 18.9061 20.2235 18.6319 20.4148C18.3664 19.7332 18.0098 19.1139 17.5639 18.5737C16.3225 17.0686 14.4695 16.273 12.2049 16.273C9.94034 16.273 8.08685 17.0686 6.8454 18.5737C5.81131 19.8275 5.25192 21.5006 5.22079 23.4196C4.83536 23.6956 4.64035 24.19 4.77036 24.6752C4.86053 25.0117 5.0885 25.274 5.37735 25.4186C5.6218 26.8336 6.1409 28.2073 6.88522 29.3705C5.19745 29.9839 3.7413 30.8866 2.61337 32.0283C0.903626 33.7591 0 36.0008 0 38.5111V44.4048C0 45.0521 0.524597 45.5767 1.17188 45.5767H16.2218V50.2647C16.2218 50.912 16.7464 51.4366 17.3936 51.4366H42.6064C43.2536 51.4366 43.7782 50.912 43.7782 50.2647V45.5767H58.8281C59.4754 45.5767 60 45.0521 60 44.4048V38.5111C60 35.9989 59.0964 33.7559 57.3875 32.0255ZM40.8412 36.2365C40.2969 35.6854 39.6835 35.1841 39.0115 34.7364C40.0621 33.1278 41.8451 31.9308 44.1582 31.2913C44.8856 31.885 45.7137 32.3135 46.6232 32.5135V43.233H43.7718C43.7027 40.528 42.6952 38.1133 40.8412 36.2365ZM47.7951 30.297C46.8805 30.297 46.0588 29.9006 45.3694 29.2556C45.3191 29.1947 45.2632 29.1398 45.2019 29.0908C44.258 28.1213 43.5869 26.6775 43.3035 25.1692C46.1375 24.6551 49.4531 24.6551 52.2871 25.1692C52.0038 26.6766 51.3336 28.1199 50.3902 29.0894C50.3293 29.1384 50.273 29.1938 50.2226 29.2542C49.5332 29.8997 48.7111 30.297 47.7951 30.297ZM47.7951 18.6172C49.3588 18.6172 50.554 19.1042 51.3469 20.0656C51.9186 20.7586 52.2816 21.714 52.3979 22.8089C49.4522 22.3109 46.1385 22.3109 43.1927 22.8089C43.309 21.714 43.672 20.7586 44.2438 20.0656C45.0366 19.1042 46.2314 18.6172 47.7951 18.6172ZM39.8753 22.8501C40.0269 23.4292 40.1834 24.028 40.3624 24.6812C40.4539 25.0149 40.681 25.2744 40.9676 25.4186C41.212 26.8327 41.7307 28.206 42.4745 29.3687C40.036 30.2485 38.1322 31.7079 36.9479 33.6108C36.5854 33.4515 36.21 33.3059 35.8255 33.1718C36.7401 31.8026 37.3709 30.1533 37.6515 28.455C37.9756 28.3199 38.2361 28.0425 38.3336 27.6777C38.4714 27.1646 38.2457 26.6404 37.8149 26.3763C37.7953 24.185 37.1681 22.2775 35.9949 20.8557C34.8294 19.4425 33.1764 18.5925 31.1719 18.3572V16.6937C32.0856 16.4927 32.9169 16.0615 33.6465 15.4637C38.2407 16.6085 38.616 18.0386 39.8753 22.8501ZM30 34.3112C28.8995 34.3112 27.9135 33.8305 27.0909 33.0505C27.0511 33.0033 27.0071 32.9603 26.9604 32.9205C25.8018 31.7518 24.9893 29.9825 24.6739 28.1506C28.0211 27.5193 31.9789 27.5193 35.3256 28.1506C35.0102 29.9825 34.1982 31.7509 33.04 32.92C32.9938 32.9594 32.9503 33.002 32.9105 33.0486C32.0879 33.8296 31.1009 34.3112 30 34.3112ZM27.5743 13.4353C27.5235 13.3744 27.4677 13.3195 27.4063 13.2705C26.4624 12.301 25.7918 10.8567 25.508 9.34885C28.3424 8.83478 31.6576 8.83478 34.492 9.34885C34.2087 10.8567 33.5381 12.3005 32.5941 13.2701C32.5333 13.3186 32.4779 13.3735 32.4275 13.4339C31.7381 14.0794 30.916 14.4767 30 14.4767C29.0849 14.4767 28.2632 14.0798 27.5743 13.4353ZM30 2.79688C31.5637 2.79688 32.7585 3.28394 33.5513 4.24524C34.1231 4.93784 34.4861 5.89319 34.6024 6.98724C31.6571 6.4892 28.3429 6.4892 25.3976 6.98724C25.5139 5.89319 25.8769 4.93784 26.4487 4.24524C27.2415 3.28394 28.4363 2.79688 30 2.79688ZM25.8128 22.3466C26.7522 21.2086 28.1607 20.6313 30 20.6313C31.8393 20.6313 33.2478 21.2086 34.1867 22.3466C34.899 23.2099 35.3352 24.4143 35.4446 25.7885C31.9734 25.1728 28.0266 25.1728 24.5554 25.7885C24.6648 24.4143 25.101 23.2099 25.8128 22.3466ZM20.9917 34.7383C20.3188 35.1869 19.7044 35.6886 19.1592 36.2402C17.3053 38.117 16.2973 40.5303 16.2282 43.233H13.3763V32.5135C14.2873 32.313 15.1158 31.8841 15.8437 31.2895C18.159 31.928 19.9425 33.1269 20.9917 34.7383ZM9.77875 29.2552C9.72839 29.1947 9.67255 29.1403 9.61166 29.0913C8.6673 28.1222 7.99622 26.6775 7.71286 25.1692C10.5469 24.6551 13.8625 24.6551 16.6965 25.1692C16.4131 26.6766 15.743 28.1199 14.7995 29.0894C14.7386 29.1384 14.6823 29.1938 14.632 29.2542C13.9421 29.9001 13.12 30.297 12.2044 30.297C11.2894 30.297 10.4677 29.9001 9.77875 29.2552ZM12.2044 18.6172C13.7682 18.6172 14.9634 19.1042 15.7562 20.0656C16.328 20.7586 16.691 21.714 16.8073 22.8089C13.8615 22.3109 10.5478 22.3109 7.60208 22.8089C7.71835 21.714 8.08136 20.7586 8.65311 20.0656C9.44595 19.1042 10.6407 18.6172 12.2044 18.6172ZM2.34375 38.5111C2.34375 35.0385 4.65912 32.3734 8.56888 31.2927C9.29581 31.8855 10.1234 32.3135 11.033 32.5135V43.233H2.34375V38.5111ZM41.4345 49.0928H31.1719V47.562C31.1719 46.9148 30.6473 46.3902 30 46.3902C29.3527 46.3902 28.8281 46.9148 28.8281 47.562V49.0928H18.5651V43.5301C18.5651 40.3802 20.1938 37.8025 23.0562 36.2209C23.0988 36.2008 23.139 36.1784 23.1775 36.1537C23.9864 35.7202 24.8914 35.3654 25.8829 35.0976C26.7448 35.8163 27.735 36.3258 28.8281 36.5405V38.1866C28.8281 38.8339 29.3527 39.3585 30 39.3585C30.6473 39.3585 31.1719 38.8339 31.1719 38.1866V36.5405C32.2664 36.3258 33.257 35.8154 34.1194 35.0958C35.1109 35.3631 36.0159 35.7174 36.8243 36.1509C36.8637 36.1756 36.9044 36.1985 36.9475 36.2187C39.8076 37.7993 41.4349 40.3779 41.4349 43.5296V49.0928H41.4345ZM57.6562 43.233H48.9674V32.5135C49.8775 32.3135 50.7056 31.8846 51.4334 31.2908C55.3418 32.3698 57.6562 35.0349 57.6562 38.5111V43.233Z" fill="#98D431"/>
</svg>
