<svg width="60" height="60" viewBox="0 0 60 60" fill="none" xmlns="http://www.w3.org/2000/svg">
<g clip-path="url(#clip0_36_745)">
<path d="M38.6717 41.4856C38.6717 39.5471 37.0946 37.97 35.1561 37.97H24.8437C22.9052 37.97 21.3281 39.5471 21.3281 41.4856C21.3281 43.4241 22.9052 45.0012 24.8437 45.0012H35.1561C37.0946 45.0012 38.6717 43.4241 38.6717 41.4856ZM23.6718 41.4856C23.6718 40.8394 24.1975 40.3137 24.8437 40.3137H35.1561C35.8023 40.3137 36.328 40.8394 36.328 41.4856C36.328 42.1317 35.8023 42.6574 35.1561 42.6574H24.8437C24.1975 42.6574 23.6718 42.1317 23.6718 41.4856Z" fill="#98D431"/>
<path d="M53.7394 18.7663C52.4981 13.5102 49.4806 8.74505 45.243 5.34875C40.9395 1.89948 35.5261 0 30 0C24.474 0 19.0604 1.89948 14.757 5.34875C10.5194 8.74505 7.50193 13.5102 6.26058 18.7663C6.153 19.2221 6.32796 19.6917 6.69323 19.9685L6.69276 19.9691L23.0013 32.3435H17.3437C15.4052 32.3435 13.8281 33.9206 13.8281 35.8591V56.4839C13.8281 58.4224 15.4052 59.9995 17.3437 59.9995H24.7265C25.3736 59.9995 25.8984 59.4749 25.8984 58.8277C25.8984 58.1804 25.3736 57.6558 24.7265 57.6558H17.3437C16.6976 57.6558 16.1719 57.1301 16.1719 56.4839V35.8591C16.1719 35.2129 16.6976 34.6872 17.3437 34.6872H42.656C43.3022 34.6872 43.8279 35.2129 43.8279 35.8591V56.4839C43.8279 57.1301 43.3022 57.6558 42.656 57.6558H35.2733C34.6262 57.6558 34.1014 58.1804 34.1014 58.8277C34.1014 59.4749 34.6262 59.9995 35.2733 59.9995H42.656C44.5945 59.9995 46.1716 58.4224 46.1716 56.4839V35.8591C46.1716 33.9206 44.5945 32.3435 42.656 32.3435H36.9987L53.3072 19.9691L53.3068 19.9685C53.672 19.6916 53.847 19.222 53.7394 18.7663ZM16.2226 7.17756C20.1683 4.01528 24.9324 2.34373 30 2.34373C35.0676 2.34373 39.8316 4.01528 43.7773 7.17756C46.7633 9.57086 49.0793 12.7152 50.4868 16.2346C47.4858 14.9836 43.9484 15.396 41.3005 17.4726C39.6946 16.2095 37.7248 15.5244 35.6499 15.5244C33.5754 15.5244 31.6058 16.2094 29.9999 17.4722C28.394 16.2094 26.4244 15.5244 24.3498 15.5244C22.2749 15.5244 20.3053 16.2095 18.6992 17.4726C16.051 15.3957 12.5142 14.9832 9.51286 16.2346C10.9206 12.7152 13.2366 9.57086 16.2226 7.17756ZM28.8281 30.9492L20.2798 19.215C21.4496 18.341 22.8633 17.868 24.35 17.868C26.0144 17.868 27.5865 18.4619 28.8281 19.5468V30.9492ZM31.1719 19.547C32.4135 18.462 33.9856 17.8681 35.65 17.8681C37.1367 17.8681 38.5504 18.3411 39.7202 19.2151L31.1719 30.9493V19.547ZM9.29008 18.9979C11.9147 17.2622 15.4844 17.5338 17.8141 19.811L26.944 32.3435H26.8786L9.29008 18.9979ZM33.0559 32.3435L42.1858 19.8109C44.5154 17.5337 48.0853 17.2619 50.7098 18.9978L33.1213 32.3435H33.0559Z" fill="#98D431"/>
<path d="M29.9998 60C30.647 60 31.1717 59.4753 31.1717 58.8281C31.1717 58.1809 30.647 57.6562 29.9998 57.6562C29.3526 57.6562 28.8279 58.1809 28.8279 58.8281C28.8279 59.4753 29.3526 60 29.9998 60Z" fill="#98D431"/>
</g>
<defs>
<clipPath id="clip0_36_745">
<rect width="60" height="60" fill="white"/>
</clipPath>
</defs>
</svg>
