<svg width="58" height="60" viewBox="0 0 58 60" fill="none" xmlns="http://www.w3.org/2000/svg">
<path d="M28.1656 34.065C27.9011 34.065 27.6426 33.9755 27.4335 33.8082L25.4111 32.1902C24.9056 31.7859 24.8237 31.0485 25.228 30.543C25.6322 30.0377 26.3699 29.9556 26.8752 30.36L27.917 31.1933L30.8425 26.9677C31.211 26.4356 31.9409 26.3031 32.473 26.6713C33.0052 27.0397 33.1378 27.7697 32.7694 28.3018L29.1291 33.56C28.9442 33.8271 28.6567 34.0055 28.3353 34.0524C28.2787 34.0609 28.2219 34.065 28.1656 34.065Z" fill="#98D431"/>
<path d="M57.788 18.7951V18.6634C57.788 15.6441 55.748 13.0923 52.9741 12.3138C54.2869 11.0078 55.1008 9.20051 55.1008 7.2068C55.1008 3.23297 51.8678 0 47.894 0C43.9201 0 40.6871 3.23297 40.6871 7.2068C40.6871 7.9132 40.7892 8.59629 40.9796 9.24187C37.363 7.15371 33.2377 6.03492 29 6.03492C24.7601 6.03492 20.6364 7.15336 17.0203 9.24152C17.2107 8.59606 17.3127 7.9132 17.3127 7.2068C17.3128 3.23297 14.0799 0 10.1059 0C6.13199 0 2.89914 3.23297 2.89914 7.2068C2.89914 9.20051 3.71301 11.0078 5.02586 12.3138C2.2518 13.0923 0.211914 15.6441 0.211914 18.6634V18.7951C0.211914 19.1586 0.380547 19.5015 0.668476 19.7234C2.35094 21.0199 4.23836 21.9391 6.24766 22.4529C5.44246 24.8791 5.03488 27.4123 5.03488 30.0001C5.03488 32.7765 5.50398 35.49 6.43 38.076C4.31746 39.3339 2.89914 41.6408 2.89914 44.273C2.89914 46.2668 3.71301 48.0741 5.02598 49.3801C2.25191 50.1585 0.211914 52.7104 0.211914 55.7297V55.8614C0.211914 56.2249 0.380547 56.5678 0.668476 56.7896C3.39437 58.8898 6.65781 60 10.1059 60C13.5541 60 16.8174 58.8898 19.5433 56.7895C19.8312 56.5677 19.9998 56.2248 19.9998 55.8613V55.7296C19.9998 54.1484 19.4404 52.6954 18.509 51.5582C21.7492 53.1421 25.3075 53.9651 28.9998 53.9651C32.6934 53.9651 36.2508 53.1424 39.4901 51.5589C38.5591 52.6959 37.9998 54.1487 37.9998 55.7296V55.8613C37.9998 56.2248 38.1685 56.5677 38.4564 56.7895C41.1824 58.8898 44.4459 60 47.894 60C51.3422 60 54.6055 58.8898 57.3314 56.7895C57.6194 56.5677 57.788 56.2248 57.788 55.8613V55.7296C57.788 52.7102 55.748 50.1584 52.9739 49.38C54.2869 48.0739 55.1008 46.2667 55.1008 44.2729C55.1008 41.6408 53.6824 39.3338 51.5699 38.0759C52.4959 35.4899 52.965 32.7764 52.965 30C52.965 27.4143 52.5573 24.8797 51.7523 22.4528C53.7616 21.939 55.649 21.0198 57.3314 19.7232C57.6194 19.5015 57.788 19.1585 57.788 18.7951ZM47.894 2.34375C50.5755 2.34375 52.757 4.52531 52.757 7.2068C52.757 9.88828 50.5755 12.0698 47.894 12.0698C45.2125 12.0698 43.0308 9.88828 43.0308 7.2068C43.0308 4.52531 45.2125 2.34375 47.894 2.34375ZM10.1059 2.34375C12.7874 2.34375 14.969 4.52531 14.969 7.2068C14.969 9.88828 12.7874 12.0698 10.1059 12.0698C7.42445 12.0698 5.24289 9.88828 5.24289 7.2068C5.24289 4.52531 7.42457 2.34375 10.1059 2.34375ZM6.80535 14.4136H13.4064C15.6 14.4136 17.4107 16.0841 17.6331 18.2197C15.422 19.7726 12.8322 20.5902 10.1059 20.5902C7.37969 20.5902 4.78973 19.7726 2.57863 18.2197C2.80117 16.0841 4.61184 14.4136 6.80535 14.4136ZM10.1059 39.4098C12.7874 39.4098 14.969 41.5914 14.969 44.2729C14.969 46.9543 12.7874 49.1359 10.1059 49.1359C7.42445 49.1359 5.24289 46.9543 5.24289 44.2729C5.24289 41.5914 7.42457 39.4098 10.1059 39.4098ZM10.1059 57.6562C7.37957 57.6562 4.78973 56.8386 2.57863 55.2859C2.80105 53.1502 4.61184 51.4798 6.80535 51.4798H13.4064C15.6 51.4798 17.4107 53.1503 17.6331 55.2859C15.4221 56.8386 12.8323 57.6562 10.1059 57.6562ZM55.4213 55.2859C53.2102 56.8386 50.6202 57.6562 47.894 57.6562C45.1677 57.6562 42.5779 56.8386 40.3668 55.2859C40.5892 53.1502 42.4 51.4798 44.5935 51.4798H51.1946C53.3881 51.4798 55.1987 53.1503 55.4213 55.2859ZM47.894 49.1359C45.2125 49.1359 43.0309 46.9543 43.0309 44.2729C43.0309 41.5914 45.2125 39.4098 47.894 39.4098C50.5755 39.4098 52.757 41.5914 52.757 44.2729C52.757 46.9543 50.5753 49.1359 47.894 49.1359ZM50.6213 30C50.6213 32.4827 50.2061 34.9087 49.3864 37.2214C48.9047 37.1196 48.4054 37.0661 47.8939 37.0661C43.92 37.0661 40.6871 40.299 40.6871 44.2729C40.6871 45.4848 40.9878 46.6277 41.5185 47.6312C37.8509 50.2444 33.5394 51.6213 29 51.6213C24.4625 51.6213 20.1495 50.244 16.4814 47.6311C17.012 46.6277 17.3127 45.4847 17.3127 44.2729C17.3127 40.299 14.0798 37.0661 10.1059 37.0661C9.59441 37.0661 9.09519 37.1196 8.61344 37.2214C7.79383 34.9087 7.37863 32.4827 7.37863 30C7.37863 27.5468 7.78398 25.1489 8.58449 22.8611C9.08676 22.9096 9.5943 22.9339 10.1059 22.9339C13.5542 22.9339 16.8175 21.8237 19.5433 19.7234C19.8312 19.5015 19.9998 19.1586 19.9998 18.7951V18.6634C19.9998 15.9873 18.3973 13.6785 16.1015 12.6462C19.816 9.88254 24.3299 8.37867 29 8.37867C33.6677 8.37867 38.1838 9.88301 41.8983 12.6461C39.6025 13.6784 38 15.9872 38 18.6633V18.795C38 19.1585 38.1686 19.5014 38.4565 19.7232C41.1823 21.8237 44.4456 22.9338 47.8939 22.9338C48.4054 22.9338 48.9129 22.9095 49.4152 22.8609C50.2157 25.1494 50.6213 27.5487 50.6213 30ZM47.894 20.5902C45.1676 20.5902 42.5779 19.7726 40.3668 18.2197C40.5892 16.084 42.4 14.4136 44.5935 14.4136H51.1946C53.3882 14.4136 55.1989 16.0841 55.4213 18.2197C53.2102 19.7727 50.6202 20.5902 47.894 20.5902Z" fill="#98D431"/>
<path d="M28.9998 42.326C22.2033 42.326 16.6738 36.7965 16.6738 30C16.6738 23.2034 22.2033 17.674 28.9998 17.674C33.4356 17.674 37.549 20.0747 39.735 23.9393C40.0537 24.5027 39.8553 25.2177 39.2921 25.5363C38.7286 25.8549 38.0139 25.6565 37.695 25.0933C35.9242 21.9625 32.5923 20.0177 28.9998 20.0177C23.4955 20.0177 19.0176 24.4957 19.0176 30C19.0176 35.5043 23.4955 39.9822 28.9998 39.9822C32.713 39.9822 36.0978 37.9405 37.8334 34.6537C38.1355 34.0813 38.8446 33.8625 39.4169 34.1646C39.9892 34.4668 40.2082 35.1757 39.906 35.7481C37.7635 39.8055 33.5845 42.326 28.9998 42.326Z" fill="#98D431"/>
<path d="M40.1539 31.0547C39.6571 31.0547 39.2053 30.7283 39.0454 30.259C38.887 29.7943 39.0442 29.2606 39.4332 28.9593C39.8017 28.6741 40.3152 28.6332 40.7228 28.859C41.1505 29.096 41.3907 29.5908 41.3105 30.0737C41.2178 30.6315 40.7196 31.0547 40.1539 31.0547Z" fill="#98D431"/>
</svg>
