<svg width="60" height="60" viewBox="0 0 60 60" fill="none" xmlns="http://www.w3.org/2000/svg">
<path d="M16.0506 37.7618C16.6109 37.4386 16.8027 36.7213 16.4795 36.161C16.1559 35.6011 15.439 35.4089 14.8787 35.7321C14.3184 36.0557 14.1261 36.773 14.4498 37.3329C14.773 37.8932 15.4903 38.0854 16.0506 37.7618Z" fill="#98D431"/>
<path d="M11.2482 45.85L17.1496 56.0724C18.4231 58.2806 21.2878 59.0982 23.5533 57.7885C25.795 56.493 26.5654 53.6288 25.2685 51.3853L21.7529 45.2952L24.7975 43.5374C25.3578 43.2133 25.5501 42.4969 25.2264 41.9366L23.7025 39.2971C23.8843 39.2619 25.079 39.0275 46.1485 34.8944C48.7532 34.7529 50.3137 31.9043 48.9981 29.6269L45.1034 22.8813L47.5923 19.1116C47.8368 18.7408 47.8514 18.2643 47.6294 17.8798L45.2856 13.8203C45.0636 13.4358 44.642 13.2106 44.2003 13.2367L39.6918 13.5072L35.3682 6.01819C34.742 4.93329 33.62 4.2764 32.3675 4.26083C32.3524 4.26038 32.3378 4.26038 32.3227 4.26038C31.1124 4.26038 30.0137 4.86279 29.3628 5.88132L14.0542 25.383L4.102 31.1288C0.187664 33.3879 -1.16823 38.4095 1.09953 42.3344C3.17137 45.9233 7.53935 47.335 11.2482 45.85ZM23.2393 52.5576C23.8866 53.6773 23.5034 55.1101 22.3805 55.7588C21.254 56.4102 19.8193 56.0101 19.1794 54.9009L13.32 44.7509L17.3794 42.4072C24.1608 54.1543 23.1303 52.3695 23.2393 52.5576ZM20.581 43.265L19.4092 41.2353L21.4389 40.0634L22.6108 42.0932L20.581 43.265ZM43.618 15.6193L45.2376 18.4245L43.7933 20.6117L41.0019 15.7763L43.618 15.6193ZM31.3229 7.16626C31.6374 6.65173 32.1364 6.59863 32.3387 6.60413C32.5387 6.60641 33.0372 6.66867 33.338 7.18961L46.9684 30.7988C47.4124 31.5674 46.8727 32.5337 45.9823 32.5557C45.8226 32.5593 45.7489 32.5882 45.3396 32.6646L30.9215 7.69131C31.224 7.30222 31.263 7.26468 31.3229 7.16626ZM29.3619 9.67801L42.9085 33.1416L22.4638 37.1516L16.2474 26.3846L29.3619 9.67801ZM3.12925 41.1625C2.61473 40.2722 2.34282 39.2614 2.34282 38.2388C2.34282 36.1487 3.46617 34.2022 5.27388 33.1585L14.4076 27.8851L20.267 38.0337L11.1333 43.3076C8.33494 44.9226 4.7447 43.9604 3.12925 41.1625Z" fill="#98D431"/>
<path d="M12.4201 38.5048C12.0964 37.9445 11.3796 37.7522 10.8193 38.0759L8.78953 39.2477C8.23014 39.5709 7.51191 39.3782 7.18873 38.8188C6.86509 38.2585 6.14823 38.0663 5.58793 38.3899C5.02763 38.7135 4.83536 39.4304 5.159 39.9907C6.12351 41.6615 8.275 42.2507 9.9614 41.2775L11.9911 40.1056C12.5514 39.782 12.7437 39.0656 12.4201 38.5048Z" fill="#98D431"/>
<path d="M58.2582 6.76715L51.7282 10.4009C51.1629 10.7158 50.9592 11.4295 51.2741 11.9948C51.5882 12.5597 52.3014 12.7643 52.8681 12.4489L59.3976 8.81519C59.9634 8.50025 60.1666 7.78659 59.8517 7.22126C59.5372 6.65546 58.8236 6.45221 58.2582 6.76715Z" fill="#98D431"/>
<path d="M57.5734 18.9043L53.0457 17.6912C52.4204 17.5237 51.7777 17.8945 51.6102 18.5198C51.4426 19.1451 51.8139 19.7873 52.4392 19.9549L56.9674 21.168C57.5963 21.3369 58.2358 20.9601 58.4024 20.3394C58.57 19.7141 58.1987 19.0714 57.5734 18.9043Z" fill="#98D431"/>
<path d="M46.1952 2.50943L44.9808 7.03762C44.8133 7.66293 45.184 8.30517 45.8094 8.47317C46.4342 8.64026 47.0769 8.27038 47.2449 7.64462L48.4589 3.11642C48.6264 2.49112 48.2556 1.84842 47.6303 1.68087C47.0055 1.51333 46.3628 1.88412 46.1952 2.50943Z" fill="#98D431"/>
</svg>
