<svg width="60" height="60" viewBox="0 0 60 60" fill="none" xmlns="http://www.w3.org/2000/svg">
<g clip-path="url(#clip0_152_96)">
<path d="M38.9979 34.3359V28.3265L48.8953 18.6878L50.4346 19.5407C50.6113 19.6386 50.8069 19.6876 51.0026 19.6876C51.1983 19.6876 51.3939 19.6386 51.5706 19.5407L59.3964 15.2048C59.7687 14.9982 60 14.6056 60 14.1796V5.50775C60 5.08166 59.7687 4.6892 59.3961 4.48272L51.5704 0.146777C51.2169 -0.0489258 50.7878 -0.0489258 50.4345 0.146777L42.6087 4.48272C42.236 4.6892 42.0048 5.08166 42.0048 5.50775V14.1796C42.0048 14.6057 42.2361 14.9982 42.6087 15.2047L46.7541 17.5014L38.8842 25.1656C38.7811 24.9467 38.6128 24.7603 38.3939 24.639L30.5681 20.303C30.2147 20.1073 29.7855 20.1073 29.4322 20.303L21.6064 24.639C21.6027 24.6411 21.5995 24.6438 21.5959 24.6458L13.8203 17.1834L17.3917 15.2047C17.7643 14.9982 17.9955 14.6057 17.9955 14.1796V5.50775C17.9955 5.08166 17.7642 4.6892 17.3917 4.48272L9.5659 0.146777C9.21246 -0.0489258 8.78332 -0.0489258 8.43 0.146777L0.604219 4.48272C0.231328 4.68908 0 5.08166 0 5.50775V14.1796C0 14.6057 0.231328 14.9982 0.603867 15.2047L8.42965 19.5406C8.60637 19.6385 8.80195 19.6874 8.99766 19.6874C9.19336 19.6874 9.38895 19.6385 9.56566 19.5406L11.6742 18.3724L21.0023 27.3248V34.3359C21.0023 34.762 21.2337 35.1544 21.6062 35.3609L22.4913 35.8514L15.1804 43.1623C15.0927 43.25 15.0221 43.3481 14.9681 43.4526L9.56566 40.4594C9.21223 40.2637 8.78309 40.2637 8.42977 40.4594L0.603984 44.7953C0.231328 45.0016 0 45.3942 0 45.8203V54.4921C0 54.9182 0.231328 55.3107 0.603867 55.5172L8.42965 59.8531C8.60637 59.951 8.80195 60 8.99766 60C9.19336 60 9.38895 59.951 9.56566 59.8531L17.3914 55.5172C17.7641 55.3107 17.9953 54.9182 17.9953 54.4921V45.8203C17.9953 45.3942 17.764 45.0017 17.3914 44.7952L17.0508 44.6064L24.6241 37.0331L29.432 39.6969C29.6087 39.7947 29.8043 39.8437 30 39.8437C30.1957 39.8437 30.3913 39.7947 30.568 39.6969L35.3759 37.0331L42.9492 44.6064L42.6086 44.7952C42.2359 45.0017 42.0047 45.3942 42.0047 45.8203V54.4921C42.0047 54.9182 42.236 55.3107 42.6086 55.5172L50.4343 59.8531C50.6111 59.951 50.8066 60 51.0023 60C51.198 60 51.3936 59.951 51.5704 59.8531L59.3961 55.5172C59.7688 55.3107 60 54.9182 60 54.4921V45.8203C60 45.3942 59.7687 45.0017 59.3961 44.7952L51.5704 40.4593C51.2169 40.2636 50.7878 40.2636 50.4345 40.4593L45.0823 43.4247L37.5089 35.8514L38.394 35.3609C38.7667 35.1544 38.9979 34.762 38.9979 34.3359ZM57.6562 13.4892L52.1742 16.5265V10.5342L57.6562 7.49678V13.4892ZM51.0023 2.5115L56.4101 5.50775L51.0023 8.50389L45.5945 5.50775L51.0023 2.5115ZM44.3483 13.4893V7.49678L49.8304 10.5342V16.5265L49.2647 16.2132C49.262 16.2117 49.2593 16.2101 49.2565 16.2086L44.3483 13.4893ZM7.82578 16.5265L2.34375 13.4892V7.49678L7.82578 10.5342V16.5265ZM8.99766 8.50389L3.58992 5.50775L8.99766 2.5115L14.4055 5.50775L8.99766 8.50389ZM11.3012 15.8995C11.2977 15.9015 11.2941 15.9033 11.2905 15.9053L10.1695 16.5264V10.5342L15.6516 7.49678V13.4892L11.3012 15.8995ZM7.82578 56.8391L2.34375 53.8017V47.8093L7.82578 50.8467V56.8391ZM8.99766 48.8164L3.58992 45.8203L8.99766 42.824L14.4055 45.8203L8.99766 48.8164ZM15.6516 53.8017L10.1695 56.8391V50.8467L15.6516 47.8093V53.8017ZM57.6562 53.8017L52.1742 56.8391V50.8467L57.6562 47.8093V53.8017ZM45.8386 45.8385C45.9183 45.7589 45.9832 45.6701 46.0351 45.5763L51.0023 42.824L56.4101 45.8203L51.0023 48.8165L45.7583 45.9111C45.7857 45.8882 45.8127 45.8643 45.8386 45.8385ZM44.3483 47.8093L49.8304 50.8467V56.8391L44.3483 53.8018V47.8093ZM28.8281 36.6828L24.9653 34.5426C24.965 34.5425 24.9648 34.5424 24.9646 34.5423L23.346 33.6455V27.6531L28.8281 30.6904V36.6828ZM30 28.6601L24.5923 25.664L30 22.6678L35.4077 25.664L30 28.6601ZM36.6539 33.6454L35.0354 34.5421C35.0352 34.5423 35.035 34.5424 35.0347 34.5425L31.1719 36.6828V30.6904L36.6539 27.653V33.6454Z" fill="#98D431"/>
<path d="M22.1565 6.67136C21.9387 6.45351 21.6363 6.328 21.3281 6.328C21.0199 6.328 20.7176 6.45339 20.4996 6.67136C20.2816 6.88933 20.1562 7.19167 20.1562 7.49988C20.1562 7.80808 20.2815 8.11042 20.4996 8.32839C20.7176 8.54625 21.0199 8.67175 21.3281 8.67175C21.6363 8.67175 21.9387 8.54636 22.1565 8.32839C22.3745 8.11042 22.5 7.80808 22.5 7.49988C22.5 7.19167 22.3746 6.88933 22.1565 6.67136Z" fill="#98D431"/>
<path d="M38.7891 6.32812H25.6641C25.017 6.32812 24.4922 6.85289 24.4922 7.5C24.4922 8.14711 25.017 8.67188 25.6641 8.67188H38.7891C39.4362 8.67188 39.9609 8.14711 39.9609 7.5C39.9609 6.85289 39.4362 6.32812 38.7891 6.32812Z" fill="#98D431"/>
<path d="M33.75 51.3281H21.3281C20.681 51.3281 20.1562 51.8529 20.1562 52.5C20.1562 53.1471 20.681 53.6719 21.3281 53.6719H33.75C34.3971 53.6719 34.9219 53.1471 34.9219 52.5C34.9219 51.8529 34.3971 51.3281 33.75 51.3281Z" fill="#98D431"/>
<path d="M39.6175 51.6714C39.3996 51.4534 39.0973 51.328 38.7891 51.328C38.4809 51.328 38.1785 51.4534 37.9605 51.6714C37.7426 51.8893 37.6172 52.1917 37.6172 52.4999C37.6172 52.8081 37.7425 53.1104 37.9605 53.3284C38.1785 53.5462 38.4809 53.6718 38.7891 53.6718C39.0973 53.6718 39.3996 53.5464 39.6175 53.3284C39.8354 53.1104 39.9609 52.8081 39.9609 52.4999C39.9609 52.1917 39.8355 51.8893 39.6175 51.6714Z" fill="#98D431"/>
<path d="M53.387 31.0792C53.1691 30.8612 52.8668 30.7358 52.5586 30.7358C52.2504 30.7358 51.948 30.8611 51.7301 31.0792C51.5121 31.2983 51.3867 31.5995 51.3867 31.9089C51.3867 32.2171 51.512 32.5183 51.7301 32.7362C51.948 32.9554 52.2504 33.0797 52.5586 33.0797C52.8668 33.0797 53.1691 32.9554 53.387 32.7362C53.605 32.5184 53.7305 32.2171 53.7305 31.9089C53.7305 31.5995 53.6051 31.2983 53.387 31.0792Z" fill="#98D431"/>
<path d="M53.387 26.7139C53.1691 26.4959 52.8668 26.3717 52.5586 26.3717C52.2504 26.3717 51.948 26.4959 51.7301 26.7139C51.5121 26.933 51.3867 27.2342 51.3867 27.5424C51.3867 27.8518 51.512 28.153 51.7301 28.3721C51.948 28.5899 52.2504 28.7155 52.5586 28.7155C52.8668 28.7155 53.1691 28.5901 53.387 28.3721C53.605 28.153 53.7305 27.8506 53.7305 27.5424C53.7305 27.2342 53.6051 26.933 53.387 26.7139Z" fill="#98D431"/>
<path d="M53.387 22.3487C53.1691 22.1307 52.8668 22.0065 52.5586 22.0065C52.2504 22.0065 51.948 22.1307 51.7301 22.3487C51.5121 22.5678 51.3867 22.869 51.3867 23.1772C51.3867 23.4865 51.512 23.7877 51.7301 24.0056C51.948 24.2247 52.2504 24.349 52.5586 24.349C52.8668 24.349 53.1691 24.2247 53.387 24.0056C53.605 23.7877 53.7305 23.4864 53.7305 23.1772C53.7305 22.869 53.6051 22.5678 53.387 22.3487Z" fill="#98D431"/>
<path d="M53.387 35.4444C53.1691 35.2263 52.8668 35.1022 52.5586 35.1022C52.2504 35.1022 51.948 35.2264 51.7301 35.4444C51.5121 35.6635 51.3867 35.9647 51.3867 36.2729C51.3867 36.5822 51.512 36.8834 51.7301 37.1026C51.948 37.3204 52.2504 37.4459 52.5586 37.4459C52.8668 37.4459 53.1691 37.3205 53.387 37.1026C53.605 36.8834 53.7305 36.5822 53.7305 36.2729C53.7305 35.9647 53.6051 35.6635 53.387 35.4444Z" fill="#98D431"/>
<path d="M8.38699 31.0791C8.16914 30.8612 7.8668 30.7369 7.55859 30.7369C7.25039 30.7369 6.94805 30.8612 6.73008 31.0791C6.51211 31.2971 6.38672 31.5994 6.38672 31.9076C6.38672 32.217 6.51199 32.5194 6.73008 32.736C6.94805 32.9552 7.25039 33.0795 7.55859 33.0795C7.8668 33.0795 8.16914 32.9552 8.38699 32.736C8.60496 32.5182 8.73047 32.2169 8.73047 31.9076C8.73047 31.5994 8.60508 31.2983 8.38699 31.0791Z" fill="#98D431"/>
<path d="M8.38699 26.7138C8.16914 26.4959 7.8668 26.3705 7.55859 26.3705C7.25039 26.3705 6.94805 26.4958 6.73008 26.7138C6.51211 26.9319 6.38672 27.2342 6.38672 27.5435C6.38672 27.8519 6.51199 28.1542 6.73008 28.3709C6.94805 28.59 7.25039 28.7144 7.55859 28.7144C7.8668 28.7144 8.16914 28.59 8.38699 28.3709C8.60496 28.153 8.73047 27.8517 8.73047 27.5435C8.73047 27.2342 8.60508 26.933 8.38699 26.7138Z" fill="#98D431"/>
<path d="M8.38699 22.3487C8.16914 22.1308 7.8668 22.0054 7.55859 22.0054C7.25039 22.0054 6.94805 22.1306 6.73008 22.3487C6.51211 22.5668 6.38672 22.869 6.38672 23.1784C6.38672 23.4866 6.51199 23.789 6.73008 24.0069C6.94805 24.2249 7.25039 24.3503 7.55859 24.3503C7.8668 24.3503 8.16914 24.2249 8.38699 24.0069C8.60496 23.7878 8.73047 23.4866 8.73047 23.1784C8.73047 22.869 8.60508 22.5679 8.38699 22.3487Z" fill="#98D431"/>
<path d="M8.38699 35.4444C8.16914 35.2264 7.8668 35.1022 7.55859 35.1022C7.25039 35.1022 6.94805 35.2264 6.73008 35.4444C6.51211 35.6623 6.38672 35.9647 6.38672 36.2729C6.38672 36.5822 6.51199 36.8846 6.73008 37.1026C6.94805 37.3204 7.25039 37.4459 7.55859 37.4459C7.8668 37.4459 8.16914 37.3205 8.38699 37.1026C8.60496 36.8834 8.73047 36.5811 8.73047 36.2729C8.73047 35.9647 8.60508 35.6635 8.38699 35.4444Z" fill="#98D431"/>
</g>
<defs>
<clipPath id="clip0_152_96">
<rect width="60" height="60" fill="white"/>
</clipPath>
</defs>
</svg>
