<svg width="30" height="30" viewBox="0 0 30 30" fill="none" xmlns="http://www.w3.org/2000/svg">
<path fill-rule="evenodd" clip-rule="evenodd" d="M2 0C0.895431 0 0 0.89543 0 2V28C0 29.1046 0.89543 30 2 30H28C29.1046 30 30 29.1046 30 28V2C30 0.895431 29.1046 0 28 0H2ZM12.7653 21.0744L13.0631 16.8863L20.7335 9.99888C21.0672 9.70337 20.6615 9.53987 20.2152 9.83537L10.7327 15.7688L6.6504 14.499C5.76238 14.2237 5.74588 13.6162 6.83565 13.1932L22.8035 7.07981C23.5431 6.80455 24.1896 7.24331 23.9488 8.36534L23.9481 8.36609L21.2315 21.0954C21.0267 21.9939 20.492 22.2167 19.733 21.7937L15.5944 18.7628L13.5971 20.6716C13.3758 20.8914 13.1913 21.0744 12.7653 21.0744Z" fill="white"/>
</svg>
