<svg width="30" height="30" viewBox="0 0 30 30" fill="none" xmlns="http://www.w3.org/2000/svg">
<path fill-rule="evenodd" clip-rule="evenodd" d="M2 0C0.895431 0 0 0.89543 0 2V28C0 29.1046 0.89543 30 2 30H28C29.1046 30 30 29.1046 30 28V2C30 0.895431 29.1046 0 28 0H2ZM21.11 11.057C21.771 10.973 22.405 10.8 23 10.539C22.554 11.203 22.007 11.78 21.356 12.242C21.363 12.381 21.368 12.521 21.368 12.666C21.368 17 18.068 22 12.032 22C10.175 22 8.453 21.465 7 20.528C7.258 20.561 7.516 20.573 7.785 20.573C9.319 20.573 10.736 20.047 11.852 19.174C10.418 19.143 9.212 18.188 8.787 16.889C8.986 16.933 9.198 16.945 9.408 16.945C9.71 16.945 10.001 16.91 10.268 16.837C8.777 16.532 7.64 15.208 7.64 13.614V13.578C8.078 13.819 8.595 13.972 9.122 13.982C8.25 13.399 7.665 12.392 7.665 11.256C7.665 10.651 7.831 10.089 8.114 9.598C9.735 11.589 12.148 12.896 14.875 13.029C14.821 12.791 14.799 12.541 14.799 12.281C14.799 10.474 16.261 9 18.077 9C19.013 9 19.871 9.397 20.473 10.038C21.219 9.889 21.919 9.622 22.553 9.244C22.309 10.013 21.79 10.651 21.11 11.057Z" fill="white"/>
</svg>
